<mxfile host="Electron" agent="Mozilla/5.0 (Windows NT 10.0; Win64; x64) AppleWebKit/537.36 (KHTML, like Gecko) draw.io/25.0.2 Chrome/128.0.6613.186 Electron/32.2.5 Safari/537.36" version="25.0.2">
  <diagram id="C5RBs43oDa-KdzZeNtuy" name="Page-1">
    <mxGraphModel dx="2075" dy="1761" grid="1" gridSize="10" guides="1" tooltips="1" connect="1" arrows="1" fold="1" page="1" pageScale="1" pageWidth="827" pageHeight="1169" math="0" shadow="0">
      <root>
        <mxCell id="WIyWlLk6GJQsqaUBKTNV-0" />
        <mxCell id="WIyWlLk6GJQsqaUBKTNV-1" parent="WIyWlLk6GJQsqaUBKTNV-0" />
        <mxCell id="0jNrdF9M6iU7lPz0BOl9-2" value="" style="edgeStyle=orthogonalEdgeStyle;rounded=0;orthogonalLoop=1;jettySize=auto;html=1;" edge="1" parent="WIyWlLk6GJQsqaUBKTNV-1" source="0jNrdF9M6iU7lPz0BOl9-0" target="0jNrdF9M6iU7lPz0BOl9-1">
          <mxGeometry relative="1" as="geometry" />
        </mxCell>
        <mxCell id="0jNrdF9M6iU7lPz0BOl9-0" value="sortL" style="ellipse;whiteSpace=wrap;html=1;" vertex="1" parent="WIyWlLk6GJQsqaUBKTNV-1">
          <mxGeometry x="70" y="-50" width="120" height="50" as="geometry" />
        </mxCell>
        <mxCell id="0jNrdF9M6iU7lPz0BOl9-4" value="" style="edgeStyle=orthogonalEdgeStyle;rounded=0;orthogonalLoop=1;jettySize=auto;html=1;" edge="1" parent="WIyWlLk6GJQsqaUBKTNV-1" source="0jNrdF9M6iU7lPz0BOl9-1" target="0jNrdF9M6iU7lPz0BOl9-3">
          <mxGeometry relative="1" as="geometry" />
        </mxCell>
        <mxCell id="0jNrdF9M6iU7lPz0BOl9-1" value="init variables start and end" style="whiteSpace=wrap;html=1;" vertex="1" parent="WIyWlLk6GJQsqaUBKTNV-1">
          <mxGeometry x="70" y="20" width="120" height="40" as="geometry" />
        </mxCell>
        <mxCell id="0jNrdF9M6iU7lPz0BOl9-6" value="" style="edgeStyle=orthogonalEdgeStyle;rounded=0;orthogonalLoop=1;jettySize=auto;html=1;" edge="1" parent="WIyWlLk6GJQsqaUBKTNV-1" source="0jNrdF9M6iU7lPz0BOl9-3" target="0jNrdF9M6iU7lPz0BOl9-5">
          <mxGeometry relative="1" as="geometry" />
        </mxCell>
        <mxCell id="0jNrdF9M6iU7lPz0BOl9-3" value="give variable n the value of length of the array" style="whiteSpace=wrap;html=1;" vertex="1" parent="WIyWlLk6GJQsqaUBKTNV-1">
          <mxGeometry x="70" y="80" width="120" height="50" as="geometry" />
        </mxCell>
        <mxCell id="0jNrdF9M6iU7lPz0BOl9-8" value="" style="edgeStyle=orthogonalEdgeStyle;rounded=0;orthogonalLoop=1;jettySize=auto;html=1;" edge="1" parent="WIyWlLk6GJQsqaUBKTNV-1" source="0jNrdF9M6iU7lPz0BOl9-5" target="0jNrdF9M6iU7lPz0BOl9-7">
          <mxGeometry relative="1" as="geometry" />
        </mxCell>
        <mxCell id="0jNrdF9M6iU7lPz0BOl9-5" value="i = 0" style="whiteSpace=wrap;html=1;" vertex="1" parent="WIyWlLk6GJQsqaUBKTNV-1">
          <mxGeometry x="100" y="150" width="60" height="30" as="geometry" />
        </mxCell>
        <mxCell id="0jNrdF9M6iU7lPz0BOl9-10" value="" style="edgeStyle=orthogonalEdgeStyle;rounded=0;orthogonalLoop=1;jettySize=auto;html=1;" edge="1" parent="WIyWlLk6GJQsqaUBKTNV-1" source="0jNrdF9M6iU7lPz0BOl9-7" target="0jNrdF9M6iU7lPz0BOl9-9">
          <mxGeometry relative="1" as="geometry" />
        </mxCell>
        <mxCell id="0jNrdF9M6iU7lPz0BOl9-25" value="" style="edgeStyle=orthogonalEdgeStyle;rounded=0;orthogonalLoop=1;jettySize=auto;html=1;" edge="1" parent="WIyWlLk6GJQsqaUBKTNV-1" source="0jNrdF9M6iU7lPz0BOl9-7" target="0jNrdF9M6iU7lPz0BOl9-24">
          <mxGeometry relative="1" as="geometry" />
        </mxCell>
        <mxCell id="0jNrdF9M6iU7lPz0BOl9-7" value="i &amp;lt;= n" style="rhombus;whiteSpace=wrap;html=1;" vertex="1" parent="WIyWlLk6GJQsqaUBKTNV-1">
          <mxGeometry x="90" y="200" width="80" height="50" as="geometry" />
        </mxCell>
        <mxCell id="0jNrdF9M6iU7lPz0BOl9-12" value="" style="edgeStyle=orthogonalEdgeStyle;rounded=0;orthogonalLoop=1;jettySize=auto;html=1;" edge="1" parent="WIyWlLk6GJQsqaUBKTNV-1" source="0jNrdF9M6iU7lPz0BOl9-9" target="0jNrdF9M6iU7lPz0BOl9-11">
          <mxGeometry relative="1" as="geometry" />
        </mxCell>
        <mxCell id="0jNrdF9M6iU7lPz0BOl9-22" style="edgeStyle=orthogonalEdgeStyle;rounded=0;orthogonalLoop=1;jettySize=auto;html=1;exitX=1;exitY=0.5;exitDx=0;exitDy=0;entryX=0;entryY=0.5;entryDx=0;entryDy=0;" edge="1" parent="WIyWlLk6GJQsqaUBKTNV-1" source="0jNrdF9M6iU7lPz0BOl9-9" target="0jNrdF9M6iU7lPz0BOl9-20">
          <mxGeometry relative="1" as="geometry" />
        </mxCell>
        <mxCell id="0jNrdF9M6iU7lPz0BOl9-9" value="s[i] = &#39; &#39; or &#39;.&#39; or &#39;\0&#39;&amp;nbsp;" style="rhombus;whiteSpace=wrap;html=1;" vertex="1" parent="WIyWlLk6GJQsqaUBKTNV-1">
          <mxGeometry x="85" y="270" width="90" height="50" as="geometry" />
        </mxCell>
        <mxCell id="0jNrdF9M6iU7lPz0BOl9-14" value="" style="edgeStyle=orthogonalEdgeStyle;rounded=0;orthogonalLoop=1;jettySize=auto;html=1;" edge="1" parent="WIyWlLk6GJQsqaUBKTNV-1" source="0jNrdF9M6iU7lPz0BOl9-11" target="0jNrdF9M6iU7lPz0BOl9-13">
          <mxGeometry relative="1" as="geometry" />
        </mxCell>
        <mxCell id="0jNrdF9M6iU7lPz0BOl9-11" value="variable end = i" style="whiteSpace=wrap;html=1;" vertex="1" parent="WIyWlLk6GJQsqaUBKTNV-1">
          <mxGeometry x="80" y="340" width="100" height="40" as="geometry" />
        </mxCell>
        <mxCell id="0jNrdF9M6iU7lPz0BOl9-16" value="" style="edgeStyle=orthogonalEdgeStyle;rounded=0;orthogonalLoop=1;jettySize=auto;html=1;" edge="1" parent="WIyWlLk6GJQsqaUBKTNV-1" source="0jNrdF9M6iU7lPz0BOl9-13" target="0jNrdF9M6iU7lPz0BOl9-15">
          <mxGeometry relative="1" as="geometry" />
        </mxCell>
        <mxCell id="0jNrdF9M6iU7lPz0BOl9-18" value="" style="edgeStyle=orthogonalEdgeStyle;rounded=0;orthogonalLoop=1;jettySize=auto;html=1;" edge="1" parent="WIyWlLk6GJQsqaUBKTNV-1" source="0jNrdF9M6iU7lPz0BOl9-13" target="0jNrdF9M6iU7lPz0BOl9-17">
          <mxGeometry relative="1" as="geometry" />
        </mxCell>
        <mxCell id="0jNrdF9M6iU7lPz0BOl9-13" value="start &amp;lt; end" style="rhombus;whiteSpace=wrap;html=1;" vertex="1" parent="WIyWlLk6GJQsqaUBKTNV-1">
          <mxGeometry x="90" y="400" width="80" height="50" as="geometry" />
        </mxCell>
        <mxCell id="0jNrdF9M6iU7lPz0BOl9-19" style="edgeStyle=orthogonalEdgeStyle;rounded=0;orthogonalLoop=1;jettySize=auto;html=1;exitX=1;exitY=0.5;exitDx=0;exitDy=0;entryX=0.5;entryY=1;entryDx=0;entryDy=0;" edge="1" parent="WIyWlLk6GJQsqaUBKTNV-1" source="0jNrdF9M6iU7lPz0BOl9-15" target="0jNrdF9M6iU7lPz0BOl9-17">
          <mxGeometry relative="1" as="geometry" />
        </mxCell>
        <mxCell id="0jNrdF9M6iU7lPz0BOl9-15" value="sort by the order of increasing" style="whiteSpace=wrap;html=1;" vertex="1" parent="WIyWlLk6GJQsqaUBKTNV-1">
          <mxGeometry x="70" y="470" width="120" height="40" as="geometry" />
        </mxCell>
        <mxCell id="0jNrdF9M6iU7lPz0BOl9-21" value="" style="edgeStyle=orthogonalEdgeStyle;rounded=0;orthogonalLoop=1;jettySize=auto;html=1;" edge="1" parent="WIyWlLk6GJQsqaUBKTNV-1" source="0jNrdF9M6iU7lPz0BOl9-17" target="0jNrdF9M6iU7lPz0BOl9-20">
          <mxGeometry relative="1" as="geometry" />
        </mxCell>
        <mxCell id="0jNrdF9M6iU7lPz0BOl9-17" value="start = i + 1" style="whiteSpace=wrap;html=1;" vertex="1" parent="WIyWlLk6GJQsqaUBKTNV-1">
          <mxGeometry x="230" y="410" width="90" height="30" as="geometry" />
        </mxCell>
        <mxCell id="0jNrdF9M6iU7lPz0BOl9-23" style="edgeStyle=orthogonalEdgeStyle;rounded=0;orthogonalLoop=1;jettySize=auto;html=1;exitX=0.5;exitY=0;exitDx=0;exitDy=0;entryX=0.5;entryY=0;entryDx=0;entryDy=0;" edge="1" parent="WIyWlLk6GJQsqaUBKTNV-1" source="0jNrdF9M6iU7lPz0BOl9-20" target="0jNrdF9M6iU7lPz0BOl9-7">
          <mxGeometry relative="1" as="geometry">
            <Array as="points">
              <mxPoint x="275" y="190" />
              <mxPoint x="130" y="190" />
            </Array>
          </mxGeometry>
        </mxCell>
        <mxCell id="0jNrdF9M6iU7lPz0BOl9-20" value="i++" style="whiteSpace=wrap;html=1;" vertex="1" parent="WIyWlLk6GJQsqaUBKTNV-1">
          <mxGeometry x="230" y="272.5" width="90" height="45" as="geometry" />
        </mxCell>
        <mxCell id="0jNrdF9M6iU7lPz0BOl9-24" value="return 0" style="ellipse;whiteSpace=wrap;html=1;" vertex="1" parent="WIyWlLk6GJQsqaUBKTNV-1">
          <mxGeometry x="-60" y="195" width="110" height="60" as="geometry" />
        </mxCell>
        <mxCell id="0jNrdF9M6iU7lPz0BOl9-28" value="" style="edgeStyle=orthogonalEdgeStyle;rounded=0;orthogonalLoop=1;jettySize=auto;html=1;" edge="1" parent="WIyWlLk6GJQsqaUBKTNV-1" source="0jNrdF9M6iU7lPz0BOl9-26" target="0jNrdF9M6iU7lPz0BOl9-27">
          <mxGeometry relative="1" as="geometry" />
        </mxCell>
        <mxCell id="0jNrdF9M6iU7lPz0BOl9-26" value="Start" style="ellipse;whiteSpace=wrap;html=1;" vertex="1" parent="WIyWlLk6GJQsqaUBKTNV-1">
          <mxGeometry x="530" y="-20" width="120" height="60" as="geometry" />
        </mxCell>
        <mxCell id="0jNrdF9M6iU7lPz0BOl9-30" value="" style="edgeStyle=orthogonalEdgeStyle;rounded=0;orthogonalLoop=1;jettySize=auto;html=1;" edge="1" parent="WIyWlLk6GJQsqaUBKTNV-1" source="0jNrdF9M6iU7lPz0BOl9-27" target="0jNrdF9M6iU7lPz0BOl9-29">
          <mxGeometry relative="1" as="geometry" />
        </mxCell>
        <mxCell id="0jNrdF9M6iU7lPz0BOl9-27" value="init array s" style="whiteSpace=wrap;html=1;" vertex="1" parent="WIyWlLk6GJQsqaUBKTNV-1">
          <mxGeometry x="530" y="70" width="120" height="40" as="geometry" />
        </mxCell>
        <mxCell id="0jNrdF9M6iU7lPz0BOl9-32" value="" style="edgeStyle=orthogonalEdgeStyle;rounded=0;orthogonalLoop=1;jettySize=auto;html=1;" edge="1" parent="WIyWlLk6GJQsqaUBKTNV-1" source="0jNrdF9M6iU7lPz0BOl9-29" target="0jNrdF9M6iU7lPz0BOl9-31">
          <mxGeometry relative="1" as="geometry" />
        </mxCell>
        <mxCell id="0jNrdF9M6iU7lPz0BOl9-29" value="input string up to 255 symbols" style="shape=parallelogram;perimeter=parallelogramPerimeter;whiteSpace=wrap;html=1;fixedSize=1;" vertex="1" parent="WIyWlLk6GJQsqaUBKTNV-1">
          <mxGeometry x="530" y="140" width="120" height="50" as="geometry" />
        </mxCell>
        <mxCell id="0jNrdF9M6iU7lPz0BOl9-34" value="" style="edgeStyle=orthogonalEdgeStyle;rounded=0;orthogonalLoop=1;jettySize=auto;html=1;" edge="1" parent="WIyWlLk6GJQsqaUBKTNV-1" source="0jNrdF9M6iU7lPz0BOl9-31" target="0jNrdF9M6iU7lPz0BOl9-33">
          <mxGeometry relative="1" as="geometry" />
        </mxCell>
        <mxCell id="0jNrdF9M6iU7lPz0BOl9-31" value="sortL(s)" style="whiteSpace=wrap;html=1;" vertex="1" parent="WIyWlLk6GJQsqaUBKTNV-1">
          <mxGeometry x="530" y="230" width="120" height="50" as="geometry" />
        </mxCell>
        <mxCell id="0jNrdF9M6iU7lPz0BOl9-36" value="" style="edgeStyle=orthogonalEdgeStyle;rounded=0;orthogonalLoop=1;jettySize=auto;html=1;" edge="1" parent="WIyWlLk6GJQsqaUBKTNV-1" source="0jNrdF9M6iU7lPz0BOl9-33" target="0jNrdF9M6iU7lPz0BOl9-35">
          <mxGeometry relative="1" as="geometry" />
        </mxCell>
        <mxCell id="0jNrdF9M6iU7lPz0BOl9-33" value="output the result" style="shape=parallelogram;perimeter=parallelogramPerimeter;whiteSpace=wrap;html=1;fixedSize=1;" vertex="1" parent="WIyWlLk6GJQsqaUBKTNV-1">
          <mxGeometry x="530" y="310" width="120" height="50" as="geometry" />
        </mxCell>
        <mxCell id="0jNrdF9M6iU7lPz0BOl9-35" value="Finish" style="ellipse;whiteSpace=wrap;html=1;" vertex="1" parent="WIyWlLk6GJQsqaUBKTNV-1">
          <mxGeometry x="530" y="400" width="120" height="70" as="geometry" />
        </mxCell>
        <mxCell id="0jNrdF9M6iU7lPz0BOl9-37" value="+" style="text;html=1;align=center;verticalAlign=middle;whiteSpace=wrap;rounded=0;" vertex="1" parent="WIyWlLk6GJQsqaUBKTNV-1">
          <mxGeometry x="70" y="242.5" width="60" height="30" as="geometry" />
        </mxCell>
        <mxCell id="0jNrdF9M6iU7lPz0BOl9-38" value="+" style="text;html=1;align=center;verticalAlign=middle;whiteSpace=wrap;rounded=0;" vertex="1" parent="WIyWlLk6GJQsqaUBKTNV-1">
          <mxGeometry x="70" y="310" width="60" height="30" as="geometry" />
        </mxCell>
        <mxCell id="0jNrdF9M6iU7lPz0BOl9-39" value="+" style="text;html=1;align=center;verticalAlign=middle;whiteSpace=wrap;rounded=0;" vertex="1" parent="WIyWlLk6GJQsqaUBKTNV-1">
          <mxGeometry x="70" y="440" width="60" height="30" as="geometry" />
        </mxCell>
        <mxCell id="0jNrdF9M6iU7lPz0BOl9-40" value="-" style="text;html=1;align=center;verticalAlign=middle;whiteSpace=wrap;rounded=0;" vertex="1" parent="WIyWlLk6GJQsqaUBKTNV-1">
          <mxGeometry x="50" y="195" width="60" height="30" as="geometry" />
        </mxCell>
        <mxCell id="0jNrdF9M6iU7lPz0BOl9-41" value="-" style="text;html=1;align=center;verticalAlign=middle;whiteSpace=wrap;rounded=0;" vertex="1" parent="WIyWlLk6GJQsqaUBKTNV-1">
          <mxGeometry x="160" y="270" width="60" height="30" as="geometry" />
        </mxCell>
        <mxCell id="0jNrdF9M6iU7lPz0BOl9-42" value="-" style="text;html=1;align=center;verticalAlign=middle;whiteSpace=wrap;rounded=0;" vertex="1" parent="WIyWlLk6GJQsqaUBKTNV-1">
          <mxGeometry x="160" y="400" width="60" height="30" as="geometry" />
        </mxCell>
      </root>
    </mxGraphModel>
  </diagram>
</mxfile>
